<svg xmlns="http://www.w3.org/2000/svg" width="479" height="138" viewBox="0 0 479 138"><path d="M476.012 100.857h-7.642c-1.669 0-3.002-1.336-3.002-2.984v-6.044c0-1.642 1.333-2.991 3.002-2.991h7.642c1.661 0 2.998 1.349 2.998 2.991v6.044c0 1.648-1.337 2.984-2.998 2.984zm-24.576 37.153c-2.588 0-4.449-.598-6.09-2.256l1.737-1.707c1.258 1.25 2.636 1.635 4.401 1.635 2.249 0 3.558-.962 3.558-2.62 0-.746-.217-1.371-.68-1.779-.435-.409-.871-.578-1.886-.722l-2.031-.288c-1.403-.193-2.515-.673-3.265-1.37-.846-.793-1.254-1.875-1.254-3.27 0-2.98 2.173-5.024 5.752-5.024 2.273 0 3.869.578 5.344 1.948l-1.669 1.634c-1.064-1.013-2.297-1.325-3.748-1.325-2.031 0-3.143 1.157-3.143 2.671 0 .625.193 1.178.653 1.587.435.385 1.136.673 1.934.793l1.959.289c1.596.24 2.49.625 3.216 1.273.943.818 1.402 2.044 1.402 3.51 0 3.149-2.584 5.021-6.19 5.021zm-5.105-37.239h-56.33c-6.166 0-11.206-4.973-11.165-11.102l-.007-16.869c0-6.122 4.999-11.132 11.158-11.098h44.795v11.112h-36.449c-4.625 0-8.37 3.723-8.37 8.318l.045.302c0 4.601 3.752 8.331 8.37 8.331h39.575c4.622 0 8.367-3.73 8.367-8.331l.017-28.015c0-4.595-3.745-8.668-8.367-8.668l-59.002.01v-11.044l67.266-.024c6.166 0 11.334 4.918 11.289 11.041l-.024 44.935c.035 6.129-4.999 11.102-11.168 11.102zm-89.107-47.377c0-4.591-3.751-8.32-8.373-8.32l-39.005-.004c-4.619 0-8.367 3.719-8.367 8.311l.007 47.435h-11.106l-.021-55.657c0-6.123 5.22-11.226 11.383-11.184l55.396-.011c6.163-.031 11.162 4.973 11.162 11.103v55.7h-11.076v-47.373zm-89.837 19.365h-44.795v-11.105h36.452c4.625 0 8.377-3.73 8.377-8.325l-.055-.308c0-4.592-3.748-8.318-8.367-8.318h-39.575c-4.625 0-8.37 3.726-8.37 8.318l-.014 28.372c0 4.594 3.745 8.324 8.374 8.324l59.12-.014v11.041l-67.387.027c-6.17 0-11.334-4.911-11.293-11.047l.035-44.935c-.049-6.133 4.988-11.096 11.158-11.096h56.333c6.159 0 11.199 4.963 11.158 11.096l.01 16.871c0 6.13-4.992 11.14-11.161 11.099zm-89.534-72.771h11.251v100.704h-11.251v-100.704zm-21.995 100.807l-55.673-.027c-6.17.04-11.158-4.97-11.158-11.099v-55.949h11.075v47.822c.11 4.5 3.817 8.12 8.37 8.12l38.998.013c4.629 0 8.377-3.722 8.377-8.324l-.01-47.428h11.106l.083 55.838c0 6.13-5.006 11.068-11.168 11.034zm-89.03-.021v-47.63c-.075-4.541-3.788-8.183-8.367-8.183l-38.998-.018c-4.622 0-8.377 3.726-8.377 8.318l.01 47.434h-11.103v-100.254h11.103v33.379l55.649.031c6.17-.044 11.168 4.966 11.168 11.099l-.01 55.824h-11.075zm-58.053 19.98l6.311 17.112h-2.781l-1.185-3.438h-6.795l-1.184 3.438h-2.781l6.311-17.112h2.104zm1.62 11.466l-2.612-7.596-2.684 7.596h5.296zm54.498-6.466c0 2.452-1.499 4.014-3.433 4.543l3.965 7.569h-3.046l-3.628-7.212h-3.264v7.212h-2.612v-17.112h6.674c3.265 0 5.344 2.091 5.344 5zm-9.406-2.672v5.364h3.869c1.741 0 2.926-.986 2.926-2.668 0-1.683-1.185-2.696-2.926-2.696h-3.869zm54.135-2.473c3.168 0 5.538 1.851 6.143 5.265h-2.66c-.411-1.731-1.572-2.936-3.483-2.936-1.015 0-1.934.388-2.539 1.037-.846.914-1.039 1.899-1.039 5.336 0 3.438.193 4.424 1.039 5.337.605.649 1.524 1.034 2.539 1.034 1.911 0 3.096-1.202 3.507-2.933h2.636c-.581 3.414-3.023 5.261-6.143 5.261-1.789 0-3.337-.646-4.522-1.824-1.689-1.682-1.665-3.581-1.665-6.875 0-3.293-.024-5.192 1.665-6.874 1.185-1.178 2.733-1.828 4.522-1.828zm47.583 7.453h6.992v-7.308h2.608v17.112h-2.608v-7.476h-6.992v7.476h-2.608v-17.112h2.608v7.308zm52.056 9.804h-2.608v-17.112h2.608v17.112zm50.415-14.784h-4.74v14.784h-2.608v-14.784h-4.739v-2.328h12.087v2.328zm49.324 0h-8.392v5.003h7.158v2.305h-7.158v5.148h8.392v2.328h-11v-17.112h11v2.328zm44.487-2.473c3.168 0 5.537 1.851 6.142 5.265h-2.66c-.411-1.731-1.572-2.936-3.482-2.936-1.016 0-1.935.388-2.539 1.037-.847.914-1.04 1.899-1.04 5.336 0 3.438.193 4.424 1.04 5.337.604.649 1.523 1.034 2.539 1.034 1.91 0 3.095-1.202 3.506-2.933h2.636c-.58 3.414-3.023 5.261-6.142 5.261-1.79 0-3.337-.646-4.519-1.824-1.692-1.682-1.668-3.581-1.668-6.875 0-3.293-.024-5.192 1.668-6.874 1.182-1.178 2.729-1.828 4.519-1.828zm55.054 2.473h-4.739v14.784h-2.608v-14.784h-4.74v-2.328h12.087v2.328z" fill="#fff"/></svg>
